<svg t="1721616756766" class="icon" viewBox="0 0 1024 1024" version="1.1" xmlns="http://www.w3.org/2000/svg" p-id="1065" width="200" height="200"><path d="M132 408h64a4 4 0 0 0 4-4V200h204a4 4 0 0 0 4-4v-64a4 4 0 0 0-4-4H168a40 40 0 0 0-40 40v236a4 4 0 0 0 4 4z m272 416H200V620a4 4 0 0 0-4-4h-64a4 4 0 0 0-4 4v236a40 40 0 0 0 40 40h236a4 4 0 0 0 4-4v-64a4 4 0 0 0-4-4z m452-696H620a4 4 0 0 0-4 4v64a4 4 0 0 0 4 4h204v204a4 4 0 0 0 4 4h64a4 4 0 0 0 4-4V168a40 40 0 0 0-40-40z m36 488h-64a4 4 0 0 0-4 4v204H620a4 4 0 0 0-4 4v64a4 4 0 0 0 4 4h236a40 40 0 0 0 40-40V620a4 4 0 0 0-4-4zM461.2 410.9h-0.4c-6.8 25.7-21.7 70.6-39.8 125.9h82.6c-22.6-64.7-36-102.6-42.4-125.9zM256 296v432a40 40 0 0 0 40 40h432a40 40 0 0 0 40-40V296a40 40 0 0 0-40-40H296a40 40 0 0 0-40 40z m376.8 81.6a4 4 0 0 1 4-4h41.7a3.9 3.9 0 0 1 4 4v268.8a3.9 3.9 0 0 1-4 4h-41.7a4 4 0 0 1-4-4zM337.3 645.1l93.2-268.8a4 4 0 0 1 3.8-2.7h56.5a3.9 3.9 0 0 1 3.7 2.6l97.3 268.9a4 4 0 0 1-3.8 5.3h-44a4 4 0 0 1-3.8-2.6L515 578.1H409.7l-24.2 69.6a4 4 0 0 1-3.8 2.7h-40.6a4 4 0 0 1-3.8-5.3z" p-id="1066"></path></svg>
