<svg t="1721616128415" class="icon" viewBox="0 0 1024 1024" version="1.1" xmlns="http://www.w3.org/2000/svg" p-id="1035" width="200" height="200"><path d="M360 184h304V256H736V176a64 64 0 0 0-64-64h-320a64 64 0 0 0-64 64V256h72V184zM864 256h-704a32 32 0 0 0-32 32V320c0 4.416 3.584 8 8 8h60.416l24.704 523.008a64 64 0 0 0 63.872 60.992h454.016a63.936 63.936 0 0 0 63.872-60.992l24.704-523.008h60.416A8 8 0 0 0 896 320v-32a32 32 0 0 0-32-32z m-132.672 584H292.672l-24.192-512h487.04l-24.192 512z" fill="#000000" p-id="1036"></path></svg>
